%TF.GenerationSoftware,KiCad,Pcbnew,(5.1.9)-1*%
%TF.CreationDate,2021-03-31T16:36:21-07:00*%
%TF.ProjectId,esp32_sensor,65737033-325f-4736-956e-736f722e6b69,v0.0.3c*%
%TF.SameCoordinates,Original*%
%TF.FileFunction,Other,Comment*%
%FSLAX46Y46*%
G04 Gerber Fmt 4.6, Leading zero omitted, Abs format (unit mm)*
G04 Created by KiCad (PCBNEW (5.1.9)-1) date 2021-03-31 16:36:21*
%MOMM*%
%LPD*%
G01*
G04 APERTURE LIST*
%ADD10C,0.100000*%
%ADD11C,0.150000*%
%ADD12C,0.002000*%
G04 APERTURE END LIST*
D10*
%TO.C,U_ESP_1*%
X132987000Y-63855000D02*
X132787000Y-64055000D01*
X132987000Y-68455000D02*
X132987000Y-63855000D01*
X132987000Y-63855000D02*
X133187000Y-64055000D01*
X132987000Y-68455000D02*
X133187000Y-68255000D01*
X132987000Y-68455000D02*
X132787000Y-68255000D01*
X115387000Y-70580000D02*
X115187000Y-70380000D01*
X110787000Y-70580000D02*
X115387000Y-70580000D01*
X115387000Y-70580000D02*
X115187000Y-70780000D01*
X110787000Y-70580000D02*
X110987000Y-70780000D01*
X110787000Y-70580000D02*
X110987000Y-70380000D01*
X133787000Y-70580000D02*
X133987000Y-70780000D01*
X133787000Y-70580000D02*
X133987000Y-70380000D01*
X138387000Y-70580000D02*
X138187000Y-70780000D01*
X138387000Y-70580000D02*
X138187000Y-70380000D01*
X133787000Y-70580000D02*
X138387000Y-70580000D01*
%TD*%
%TO.C,U_ESP_1*%
D11*
X118515571Y-65907380D02*
X118515571Y-64907380D01*
X119087000Y-65907380D02*
X118658428Y-65335952D01*
X119087000Y-64907380D02*
X118515571Y-65478809D01*
X119515571Y-65383571D02*
X119848904Y-65383571D01*
X119991761Y-65907380D02*
X119515571Y-65907380D01*
X119515571Y-64907380D01*
X119991761Y-64907380D01*
X120420333Y-65383571D02*
X120753666Y-65383571D01*
X120896523Y-65907380D02*
X120420333Y-65907380D01*
X120420333Y-64907380D01*
X120896523Y-64907380D01*
X121325095Y-65907380D02*
X121325095Y-64907380D01*
X121706047Y-64907380D01*
X121801285Y-64955000D01*
X121848904Y-65002619D01*
X121896523Y-65097857D01*
X121896523Y-65240714D01*
X121848904Y-65335952D01*
X121801285Y-65383571D01*
X121706047Y-65431190D01*
X121325095Y-65431190D01*
X122325095Y-65526428D02*
X123087000Y-65526428D01*
X123753666Y-64907380D02*
X123944142Y-64907380D01*
X124039380Y-64955000D01*
X124134619Y-65050238D01*
X124182238Y-65240714D01*
X124182238Y-65574047D01*
X124134619Y-65764523D01*
X124039380Y-65859761D01*
X123944142Y-65907380D01*
X123753666Y-65907380D01*
X123658428Y-65859761D01*
X123563190Y-65764523D01*
X123515571Y-65574047D01*
X123515571Y-65240714D01*
X123563190Y-65050238D01*
X123658428Y-64955000D01*
X123753666Y-64907380D01*
X124610809Y-64907380D02*
X124610809Y-65716904D01*
X124658428Y-65812142D01*
X124706047Y-65859761D01*
X124801285Y-65907380D01*
X124991761Y-65907380D01*
X125087000Y-65859761D01*
X125134619Y-65812142D01*
X125182238Y-65716904D01*
X125182238Y-64907380D01*
X125515571Y-64907380D02*
X126087000Y-64907380D01*
X125801285Y-65907380D02*
X125801285Y-64907380D01*
X127087000Y-64907380D02*
X127753666Y-64907380D01*
X127087000Y-65907380D01*
X127753666Y-65907380D01*
X128325095Y-64907380D02*
X128515571Y-64907380D01*
X128610809Y-64955000D01*
X128706047Y-65050238D01*
X128753666Y-65240714D01*
X128753666Y-65574047D01*
X128706047Y-65764523D01*
X128610809Y-65859761D01*
X128515571Y-65907380D01*
X128325095Y-65907380D01*
X128229857Y-65859761D01*
X128134619Y-65764523D01*
X128087000Y-65574047D01*
X128087000Y-65240714D01*
X128134619Y-65050238D01*
X128229857Y-64955000D01*
X128325095Y-64907380D01*
X129182238Y-65907380D02*
X129182238Y-64907380D01*
X129753666Y-65907380D01*
X129753666Y-64907380D01*
X130229857Y-65383571D02*
X130563190Y-65383571D01*
X130706047Y-65907380D02*
X130229857Y-65907380D01*
X130229857Y-64907380D01*
X130706047Y-64907380D01*
X121825095Y-71621666D02*
X122301285Y-71621666D01*
X121729857Y-71907380D02*
X122063190Y-70907380D01*
X122396523Y-71907380D01*
X122729857Y-71240714D02*
X122729857Y-71907380D01*
X122729857Y-71335952D02*
X122777476Y-71288333D01*
X122872714Y-71240714D01*
X123015571Y-71240714D01*
X123110809Y-71288333D01*
X123158428Y-71383571D01*
X123158428Y-71907380D01*
X123491761Y-71240714D02*
X123872714Y-71240714D01*
X123634619Y-70907380D02*
X123634619Y-71764523D01*
X123682238Y-71859761D01*
X123777476Y-71907380D01*
X123872714Y-71907380D01*
X124587000Y-71859761D02*
X124491761Y-71907380D01*
X124301285Y-71907380D01*
X124206047Y-71859761D01*
X124158428Y-71764523D01*
X124158428Y-71383571D01*
X124206047Y-71288333D01*
X124301285Y-71240714D01*
X124491761Y-71240714D01*
X124587000Y-71288333D01*
X124634619Y-71383571D01*
X124634619Y-71478809D01*
X124158428Y-71574047D01*
X125063190Y-71240714D02*
X125063190Y-71907380D01*
X125063190Y-71335952D02*
X125110809Y-71288333D01*
X125206047Y-71240714D01*
X125348904Y-71240714D01*
X125444142Y-71288333D01*
X125491761Y-71383571D01*
X125491761Y-71907380D01*
X125967952Y-71240714D02*
X125967952Y-71907380D01*
X125967952Y-71335952D02*
X126015571Y-71288333D01*
X126110809Y-71240714D01*
X126253666Y-71240714D01*
X126348904Y-71288333D01*
X126396523Y-71383571D01*
X126396523Y-71907380D01*
X127301285Y-71907380D02*
X127301285Y-71383571D01*
X127253666Y-71288333D01*
X127158428Y-71240714D01*
X126967952Y-71240714D01*
X126872714Y-71288333D01*
X127301285Y-71859761D02*
X127206047Y-71907380D01*
X126967952Y-71907380D01*
X126872714Y-71859761D01*
X126825095Y-71764523D01*
X126825095Y-71669285D01*
X126872714Y-71574047D01*
X126967952Y-71526428D01*
X127206047Y-71526428D01*
X127301285Y-71478809D01*
D10*
X135648904Y-69806190D02*
X135410809Y-69806190D01*
X135387000Y-70044285D01*
X135410809Y-70020476D01*
X135458428Y-69996666D01*
X135577476Y-69996666D01*
X135625095Y-70020476D01*
X135648904Y-70044285D01*
X135672714Y-70091904D01*
X135672714Y-70210952D01*
X135648904Y-70258571D01*
X135625095Y-70282380D01*
X135577476Y-70306190D01*
X135458428Y-70306190D01*
X135410809Y-70282380D01*
X135387000Y-70258571D01*
X136267952Y-70306190D02*
X136267952Y-69972857D01*
X136267952Y-70020476D02*
X136291761Y-69996666D01*
X136339380Y-69972857D01*
X136410809Y-69972857D01*
X136458428Y-69996666D01*
X136482238Y-70044285D01*
X136482238Y-70306190D01*
X136482238Y-70044285D02*
X136506047Y-69996666D01*
X136553666Y-69972857D01*
X136625095Y-69972857D01*
X136672714Y-69996666D01*
X136696523Y-70044285D01*
X136696523Y-70306190D01*
X136934619Y-70306190D02*
X136934619Y-69972857D01*
X136934619Y-70020476D02*
X136958428Y-69996666D01*
X137006047Y-69972857D01*
X137077476Y-69972857D01*
X137125095Y-69996666D01*
X137148904Y-70044285D01*
X137148904Y-70306190D01*
X137148904Y-70044285D02*
X137172714Y-69996666D01*
X137220333Y-69972857D01*
X137291761Y-69972857D01*
X137339380Y-69996666D01*
X137363190Y-70044285D01*
X137363190Y-70306190D01*
X112648904Y-69806190D02*
X112410809Y-69806190D01*
X112387000Y-70044285D01*
X112410809Y-70020476D01*
X112458428Y-69996666D01*
X112577476Y-69996666D01*
X112625095Y-70020476D01*
X112648904Y-70044285D01*
X112672714Y-70091904D01*
X112672714Y-70210952D01*
X112648904Y-70258571D01*
X112625095Y-70282380D01*
X112577476Y-70306190D01*
X112458428Y-70306190D01*
X112410809Y-70282380D01*
X112387000Y-70258571D01*
X113267952Y-70306190D02*
X113267952Y-69972857D01*
X113267952Y-70020476D02*
X113291761Y-69996666D01*
X113339380Y-69972857D01*
X113410809Y-69972857D01*
X113458428Y-69996666D01*
X113482238Y-70044285D01*
X113482238Y-70306190D01*
X113482238Y-70044285D02*
X113506047Y-69996666D01*
X113553666Y-69972857D01*
X113625095Y-69972857D01*
X113672714Y-69996666D01*
X113696523Y-70044285D01*
X113696523Y-70306190D01*
X113934619Y-70306190D02*
X113934619Y-69972857D01*
X113934619Y-70020476D02*
X113958428Y-69996666D01*
X114006047Y-69972857D01*
X114077476Y-69972857D01*
X114125095Y-69996666D01*
X114148904Y-70044285D01*
X114148904Y-70306190D01*
X114148904Y-70044285D02*
X114172714Y-69996666D01*
X114220333Y-69972857D01*
X114291761Y-69972857D01*
X114339380Y-69996666D01*
X114363190Y-70044285D01*
X114363190Y-70306190D01*
X132113190Y-66118095D02*
X132113190Y-66356190D01*
X132351285Y-66380000D01*
X132327476Y-66356190D01*
X132303666Y-66308571D01*
X132303666Y-66189523D01*
X132327476Y-66141904D01*
X132351285Y-66118095D01*
X132398904Y-66094285D01*
X132517952Y-66094285D01*
X132565571Y-66118095D01*
X132589380Y-66141904D01*
X132613190Y-66189523D01*
X132613190Y-66308571D01*
X132589380Y-66356190D01*
X132565571Y-66380000D01*
X132613190Y-65499047D02*
X132279857Y-65499047D01*
X132327476Y-65499047D02*
X132303666Y-65475238D01*
X132279857Y-65427619D01*
X132279857Y-65356190D01*
X132303666Y-65308571D01*
X132351285Y-65284761D01*
X132613190Y-65284761D01*
X132351285Y-65284761D02*
X132303666Y-65260952D01*
X132279857Y-65213333D01*
X132279857Y-65141904D01*
X132303666Y-65094285D01*
X132351285Y-65070476D01*
X132613190Y-65070476D01*
X132613190Y-64832380D02*
X132279857Y-64832380D01*
X132327476Y-64832380D02*
X132303666Y-64808571D01*
X132279857Y-64760952D01*
X132279857Y-64689523D01*
X132303666Y-64641904D01*
X132351285Y-64618095D01*
X132613190Y-64618095D01*
X132351285Y-64618095D02*
X132303666Y-64594285D01*
X132279857Y-64546666D01*
X132279857Y-64475238D01*
X132303666Y-64427619D01*
X132351285Y-64403809D01*
X132613190Y-64403809D01*
%TO.C,SW_ESP_1*%
D12*
X96547214Y-81464452D02*
X96547214Y-81397928D01*
X96541166Y-81385833D01*
X96529071Y-81379785D01*
X96504880Y-81379785D01*
X96492785Y-81385833D01*
X96547214Y-81458404D02*
X96535119Y-81464452D01*
X96504880Y-81464452D01*
X96492785Y-81458404D01*
X96486738Y-81446309D01*
X96486738Y-81434214D01*
X96492785Y-81422119D01*
X96504880Y-81416071D01*
X96535119Y-81416071D01*
X96547214Y-81410023D01*
%TD*%
M02*
