%TF.GenerationSoftware,KiCad,Pcbnew,(5.1.9)-1*%
%TF.CreationDate,2021-03-31T16:36:22-07:00*%
%TF.ProjectId,esp32_sensor,65737033-325f-4736-956e-736f722e6b69,v0.0.3c*%
%TF.SameCoordinates,Original*%
%TF.FileFunction,Other,Fab,Top*%
%FSLAX46Y46*%
G04 Gerber Fmt 4.6, Leading zero omitted, Abs format (unit mm)*
G04 Created by KiCad (PCBNEW (5.1.9)-1) date 2021-03-31 16:36:22*
%MOMM*%
%LPD*%
G01*
G04 APERTURE LIST*
%ADD10C,0.152400*%
%ADD11C,0.100000*%
%ADD12C,0.101600*%
%ADD13C,0.010000*%
%ADD14C,0.127000*%
%ADD15C,0.200000*%
%ADD16C,0.150000*%
%ADD17C,0.070000*%
%ADD18C,0.060000*%
G04 APERTURE END LIST*
D10*
%TO.C,CP_ESP_1*%
X99060000Y-73787000D02*
G75*
G03*
X99060000Y-73787000I0J0D01*
G01*
X99568000Y-77089000D02*
X99568000Y-70485000D01*
X92964000Y-77089000D02*
X99568000Y-77089000D01*
X92964000Y-70485000D02*
X92964000Y-77089000D01*
X99568000Y-70485000D02*
X92964000Y-70485000D01*
X99568000Y-72136000D02*
X97917000Y-70485000D01*
X99568000Y-75438000D02*
X97917000Y-77089000D01*
D11*
%TO.C,J_PW_2*%
X93726000Y-127762000D02*
X93726000Y-125857000D01*
X93726000Y-125857000D02*
X98806000Y-125857000D01*
X98806000Y-125857000D02*
X98806000Y-128397000D01*
X98806000Y-128397000D02*
X94361000Y-128397000D01*
X94361000Y-128397000D02*
X93726000Y-127762000D01*
%TO.C,U_ESP_1*%
X115587000Y-75435000D02*
X116087000Y-74935000D01*
X116087000Y-74935000D02*
X115587000Y-74435000D01*
X115587000Y-75435000D02*
X115587000Y-94215000D01*
X115587000Y-68710000D02*
X133587000Y-68710000D01*
X115587000Y-68710000D02*
X115587000Y-74435000D01*
X115587000Y-94215000D02*
X133587000Y-94215000D01*
X133587000Y-94215000D02*
X133587000Y-68710000D01*
D12*
%TO.C,C_ESP_1*%
X102184000Y-79223000D02*
X102184000Y-78511000D01*
X103035000Y-79223000D02*
X103035000Y-78511000D01*
D13*
G36*
X102135900Y-79705606D02*
G01*
X102135900Y-79205100D01*
X103086129Y-79205100D01*
X103086129Y-79705606D01*
X102135900Y-79705606D01*
G37*
X102135900Y-79705606D02*
X102135900Y-79205100D01*
X103086129Y-79205100D01*
X103086129Y-79705606D01*
X102135900Y-79705606D01*
G36*
X102135900Y-78536119D02*
G01*
X102135900Y-78036700D01*
X103086869Y-78036700D01*
X103086869Y-78536119D01*
X102135900Y-78536119D01*
G37*
X102135900Y-78536119D02*
X102135900Y-78036700D01*
X103086869Y-78036700D01*
X103086869Y-78536119D01*
X102135900Y-78536119D01*
D11*
%TO.C,J_7*%
X92583000Y-109220000D02*
X92583000Y-111125000D01*
X92583000Y-111125000D02*
X87503000Y-111125000D01*
X87503000Y-111125000D02*
X87503000Y-108585000D01*
X87503000Y-108585000D02*
X91948000Y-108585000D01*
X91948000Y-108585000D02*
X92583000Y-109220000D01*
%TO.C,J_6*%
X87503000Y-106680000D02*
X87503000Y-104775000D01*
X87503000Y-104775000D02*
X92583000Y-104775000D01*
X92583000Y-104775000D02*
X92583000Y-107315000D01*
X92583000Y-107315000D02*
X88138000Y-107315000D01*
X88138000Y-107315000D02*
X87503000Y-106680000D01*
%TO.C,J_5*%
X92583000Y-101600000D02*
X92583000Y-103505000D01*
X92583000Y-103505000D02*
X87503000Y-103505000D01*
X87503000Y-103505000D02*
X87503000Y-100965000D01*
X87503000Y-100965000D02*
X91948000Y-100965000D01*
X91948000Y-100965000D02*
X92583000Y-101600000D01*
%TO.C,J_4*%
X87503000Y-99060000D02*
X87503000Y-97155000D01*
X87503000Y-97155000D02*
X92583000Y-97155000D01*
X92583000Y-97155000D02*
X92583000Y-99695000D01*
X92583000Y-99695000D02*
X88138000Y-99695000D01*
X88138000Y-99695000D02*
X87503000Y-99060000D01*
%TO.C,J_3*%
X112522000Y-100965000D02*
X112522000Y-99060000D01*
X112522000Y-99060000D02*
X132842000Y-99060000D01*
X132842000Y-99060000D02*
X132842000Y-101600000D01*
X132842000Y-101600000D02*
X113157000Y-101600000D01*
X113157000Y-101600000D02*
X112522000Y-100965000D01*
%TO.C,J_2*%
X138176000Y-75311000D02*
X140081000Y-75311000D01*
X140081000Y-75311000D02*
X140716000Y-75946000D01*
X140716000Y-75946000D02*
X140716000Y-126111000D01*
X140716000Y-126111000D02*
X138176000Y-126111000D01*
X138176000Y-126111000D02*
X138176000Y-75311000D01*
%TO.C,J_1*%
X83820000Y-75057000D02*
X85725000Y-75057000D01*
X85725000Y-75057000D02*
X86360000Y-75692000D01*
X86360000Y-75692000D02*
X86360000Y-125857000D01*
X86360000Y-125857000D02*
X83820000Y-125857000D01*
X83820000Y-125857000D02*
X83820000Y-75057000D01*
%TO.C,LED_ESP_1*%
X129940000Y-120104000D02*
X129140000Y-120104000D01*
X129940000Y-121704000D02*
X129940000Y-120104000D01*
X129440000Y-121704000D02*
X129940000Y-121704000D01*
X129140000Y-121404000D02*
X129440000Y-121704000D01*
X129140000Y-120104000D02*
X129140000Y-121404000D01*
%TO.C,J_PW_3*%
X120269000Y-108458000D02*
X122174000Y-108458000D01*
X122174000Y-108458000D02*
X122174000Y-110998000D01*
X122174000Y-110998000D02*
X119634000Y-110998000D01*
X119634000Y-110998000D02*
X119634000Y-109093000D01*
X119634000Y-109093000D02*
X120269000Y-108458000D01*
%TO.C,J_PW_1*%
X117856000Y-117221000D02*
X117856000Y-115316000D01*
X117856000Y-115316000D02*
X122936000Y-115316000D01*
X122936000Y-115316000D02*
X122936000Y-117856000D01*
X122936000Y-117856000D02*
X118491000Y-117856000D01*
X118491000Y-117856000D02*
X117856000Y-117221000D01*
%TO.C,J_CN_4*%
X115443000Y-117856000D02*
X113538000Y-117856000D01*
X113538000Y-117856000D02*
X113538000Y-115316000D01*
X113538000Y-115316000D02*
X116078000Y-115316000D01*
X116078000Y-115316000D02*
X116078000Y-117221000D01*
X116078000Y-117221000D02*
X115443000Y-117856000D01*
%TO.C,J_CN_3*%
X126111000Y-117856000D02*
X124206000Y-117856000D01*
X124206000Y-117856000D02*
X124206000Y-115316000D01*
X124206000Y-115316000D02*
X126746000Y-115316000D01*
X126746000Y-115316000D02*
X126746000Y-117221000D01*
X126746000Y-117221000D02*
X126111000Y-117856000D01*
%TO.C,J_CN_2*%
X100203000Y-127762000D02*
X100203000Y-125857000D01*
X100203000Y-125857000D02*
X110363000Y-125857000D01*
X110363000Y-125857000D02*
X110363000Y-128397000D01*
X110363000Y-128397000D02*
X100838000Y-128397000D01*
X100838000Y-128397000D02*
X100203000Y-127762000D01*
%TO.C,J_CN_1*%
X126365000Y-127762000D02*
X126365000Y-125857000D01*
X126365000Y-125857000D02*
X136525000Y-125857000D01*
X136525000Y-125857000D02*
X136525000Y-128397000D01*
X136525000Y-128397000D02*
X127000000Y-128397000D01*
X127000000Y-128397000D02*
X126365000Y-127762000D01*
D10*
%TO.C,U_PW_1*%
X101193600Y-118516400D02*
X98196400Y-118516400D01*
X98196400Y-118516400D02*
X98196400Y-121513600D01*
X98196400Y-121513600D02*
X101193600Y-121513600D01*
X101193600Y-121513600D02*
X101193600Y-118516400D01*
X100812600Y-121265000D02*
G75*
G03*
X100812600Y-121265000I-76200J0D01*
G01*
X99999800Y-121513600D02*
G75*
G03*
X99390200Y-121513600I-304800J0D01*
G01*
D12*
%TO.C,C_PW_1*%
X110846000Y-123368000D02*
X110134000Y-123368000D01*
X110846000Y-122517000D02*
X110134000Y-122517000D01*
D13*
G36*
X111328505Y-123416100D02*
G01*
X110828100Y-123416100D01*
X110828100Y-122465929D01*
X111328505Y-122465929D01*
X111328505Y-123416100D01*
G37*
X111328505Y-123416100D02*
X110828100Y-123416100D01*
X110828100Y-122465929D01*
X111328505Y-122465929D01*
X111328505Y-123416100D01*
G36*
X110159786Y-123416100D02*
G01*
X109659700Y-123416100D01*
X109659700Y-122466080D01*
X110159786Y-122466080D01*
X110159786Y-123416100D01*
G37*
X110159786Y-123416100D02*
X109659700Y-123416100D01*
X109659700Y-122466080D01*
X110159786Y-122466080D01*
X110159786Y-123416100D01*
D14*
%TO.C,C_IMU_1*%
X103182000Y-98386000D02*
X103182000Y-96686000D01*
X104082000Y-98386000D02*
X104082000Y-96686000D01*
X103182000Y-98386000D02*
X104082000Y-98386000D01*
X103182000Y-96686000D02*
X104082000Y-96686000D01*
%TO.C,C_IMU_2*%
X102166000Y-104814000D02*
X103066000Y-104814000D01*
X102166000Y-106514000D02*
X103066000Y-106514000D01*
X103066000Y-106514000D02*
X103066000Y-104814000D01*
X102166000Y-106514000D02*
X102166000Y-104814000D01*
%TO.C,C_IMU_3*%
X107246000Y-102020000D02*
X108146000Y-102020000D01*
X107246000Y-103720000D02*
X108146000Y-103720000D01*
X108146000Y-103720000D02*
X108146000Y-102020000D01*
X107246000Y-103720000D02*
X107246000Y-102020000D01*
D10*
%TO.C,C_PW_2*%
X92339998Y-124538003D02*
X90540002Y-124538003D01*
X92339998Y-127937997D02*
X92339998Y-124538003D01*
X90540002Y-127937997D02*
X92339998Y-127937997D01*
X90540002Y-124538003D02*
X90540002Y-127937997D01*
X92339998Y-127937997D02*
X92339998Y-127187998D01*
X90540002Y-127937997D02*
X92339998Y-127937997D01*
X90540002Y-127187998D02*
X90540002Y-127937997D01*
X92339998Y-127187998D02*
X90540002Y-127187998D01*
X90540002Y-124538003D02*
X90540002Y-125288002D01*
X92339998Y-124538003D02*
X90540002Y-124538003D01*
X92339998Y-125288002D02*
X92339998Y-124538003D01*
X90540002Y-125288002D02*
X92339998Y-125288002D01*
D13*
%TO.C,C_PW_3*%
G36*
X94818214Y-115216900D02*
G01*
X95318300Y-115216900D01*
X95318300Y-116166920D01*
X94818214Y-116166920D01*
X94818214Y-115216900D01*
G37*
X94818214Y-115216900D02*
X95318300Y-115216900D01*
X95318300Y-116166920D01*
X94818214Y-116166920D01*
X94818214Y-115216900D01*
G36*
X93649495Y-115216900D02*
G01*
X94149900Y-115216900D01*
X94149900Y-116167071D01*
X93649495Y-116167071D01*
X93649495Y-115216900D01*
G37*
X93649495Y-115216900D02*
X94149900Y-115216900D01*
X94149900Y-116167071D01*
X93649495Y-116167071D01*
X93649495Y-115216900D01*
D12*
X94132000Y-116116000D02*
X94844000Y-116116000D01*
X94132000Y-115265000D02*
X94844000Y-115265000D01*
D13*
%TO.C,C_PW_4*%
G36*
X105105881Y-116613900D02*
G01*
X105605300Y-116613900D01*
X105605300Y-117564869D01*
X105105881Y-117564869D01*
X105105881Y-116613900D01*
G37*
X105105881Y-116613900D02*
X105605300Y-116613900D01*
X105605300Y-117564869D01*
X105105881Y-117564869D01*
X105105881Y-116613900D01*
G36*
X103936394Y-116613900D02*
G01*
X104436900Y-116613900D01*
X104436900Y-117564129D01*
X103936394Y-117564129D01*
X103936394Y-116613900D01*
G37*
X103936394Y-116613900D02*
X104436900Y-116613900D01*
X104436900Y-117564129D01*
X103936394Y-117564129D01*
X103936394Y-116613900D01*
D12*
X104419000Y-117513000D02*
X105131000Y-117513000D01*
X104419000Y-116662000D02*
X105131000Y-116662000D01*
D10*
%TO.C,C_PW_5*%
X113725998Y-105018002D02*
X113725998Y-106817998D01*
X113725998Y-106817998D02*
X114475997Y-106817998D01*
X114475997Y-106817998D02*
X114475997Y-105018002D01*
X114475997Y-105018002D02*
X113725998Y-105018002D01*
X111826002Y-106817998D02*
X111826002Y-105018002D01*
X111826002Y-105018002D02*
X111076003Y-105018002D01*
X111076003Y-105018002D02*
X111076003Y-106817998D01*
X111076003Y-106817998D02*
X111826002Y-106817998D01*
X114475997Y-105018002D02*
X111076003Y-105018002D01*
X111076003Y-105018002D02*
X111076003Y-106817998D01*
X111076003Y-106817998D02*
X114475997Y-106817998D01*
X114475997Y-106817998D02*
X114475997Y-105018002D01*
%TO.C,L_PW_1*%
X100920550Y-113665000D02*
G75*
G03*
X100920550Y-113665000I-76200J0D01*
G01*
X100768150Y-112941100D02*
X100768150Y-114388900D01*
X102977950Y-112941100D02*
X100768150Y-112941100D01*
X102977950Y-114388900D02*
X102977950Y-112941100D01*
X100768150Y-114388900D02*
X102977950Y-114388900D01*
%TO.C,Q_PW_1*%
X113347500Y-112001300D02*
G75*
G03*
X113347500Y-112001300I-127000J0D01*
G01*
X112077500Y-112255300D02*
X113474500Y-112255300D01*
X112077500Y-109232700D02*
X112077500Y-112255300D01*
X113474500Y-109232700D02*
X112077500Y-109232700D01*
X113474500Y-112255300D02*
X113474500Y-109232700D01*
X111467900Y-110998000D02*
X112077500Y-110998000D01*
X111467900Y-110490000D02*
X111467900Y-110998000D01*
X112077500Y-110490000D02*
X111467900Y-110490000D01*
X112077500Y-110998000D02*
X112077500Y-110490000D01*
X114084100Y-109537500D02*
X113474500Y-109537500D01*
X114084100Y-110045500D02*
X114084100Y-109537500D01*
X113474500Y-110045500D02*
X114084100Y-110045500D01*
X113474500Y-109537500D02*
X113474500Y-110045500D01*
X114084100Y-111442500D02*
X113474500Y-111442500D01*
X114084100Y-111950500D02*
X114084100Y-111442500D01*
X113474500Y-111950500D02*
X114084100Y-111950500D01*
X113474500Y-111442500D02*
X113474500Y-111950500D01*
D14*
%TO.C,R_ESP_1*%
X92672000Y-85941000D02*
X92672000Y-85001000D01*
X94272000Y-85941000D02*
X94272000Y-85001000D01*
X94272000Y-85001000D02*
X92672000Y-85001000D01*
X94272000Y-85941000D02*
X92672000Y-85941000D01*
%TO.C,R_ESP_2*%
X90385000Y-83127000D02*
X88685000Y-83127000D01*
X90385000Y-82227000D02*
X88685000Y-82227000D01*
X90385000Y-83127000D02*
X90385000Y-82227000D01*
X88685000Y-83127000D02*
X88685000Y-82227000D01*
%TO.C,R_ESP_3*%
X125641000Y-108801000D02*
X126581000Y-108801000D01*
X125641000Y-110401000D02*
X126581000Y-110401000D01*
X126581000Y-110401000D02*
X126581000Y-108801000D01*
X125641000Y-110401000D02*
X125641000Y-108801000D01*
%TO.C,R_ESP_4*%
X127596000Y-105976000D02*
X127596000Y-106876000D01*
X125896000Y-105976000D02*
X125896000Y-106876000D01*
X125896000Y-106876000D02*
X127596000Y-106876000D01*
X125896000Y-105976000D02*
X127596000Y-105976000D01*
%TO.C,R_ESP_5*%
X131610000Y-121196000D02*
X131610000Y-119596000D01*
X132550000Y-121196000D02*
X132550000Y-119596000D01*
X131610000Y-121196000D02*
X132550000Y-121196000D01*
X131610000Y-119596000D02*
X132550000Y-119596000D01*
%TO.C,R_IMU_1*%
X96959000Y-106084000D02*
X97859000Y-106084000D01*
X96959000Y-107784000D02*
X97859000Y-107784000D01*
X97859000Y-107784000D02*
X97859000Y-106084000D01*
X96959000Y-107784000D02*
X96959000Y-106084000D01*
%TO.C,R_IMU_2*%
X97859000Y-109894000D02*
X97859000Y-111594000D01*
X96959000Y-109894000D02*
X96959000Y-111594000D01*
X97859000Y-109894000D02*
X96959000Y-109894000D01*
X97859000Y-111594000D02*
X96959000Y-111594000D01*
%TO.C,R_PW_1*%
X110802000Y-121246000D02*
X110802000Y-119546000D01*
X111702000Y-121246000D02*
X111702000Y-119546000D01*
X110802000Y-121246000D02*
X111702000Y-121246000D01*
X110802000Y-119546000D02*
X111702000Y-119546000D01*
%TO.C,R_PW_2*%
X92144000Y-119595000D02*
X91244000Y-119595000D01*
X92144000Y-117895000D02*
X91244000Y-117895000D01*
X91244000Y-117895000D02*
X91244000Y-119595000D01*
X92144000Y-117895000D02*
X92144000Y-119595000D01*
%TO.C,R_PW_3*%
X91244000Y-116547000D02*
X91244000Y-114847000D01*
X92144000Y-116547000D02*
X92144000Y-114847000D01*
X91244000Y-116547000D02*
X92144000Y-116547000D01*
X91244000Y-114847000D02*
X92144000Y-114847000D01*
%TO.C,R_PW_4*%
X94938000Y-119595000D02*
X94038000Y-119595000D01*
X94938000Y-117895000D02*
X94038000Y-117895000D01*
X94038000Y-117895000D02*
X94038000Y-119595000D01*
X94938000Y-117895000D02*
X94938000Y-119595000D01*
D10*
%TO.C,SW_ESP_1*%
X97917000Y-81407000D02*
G75*
G03*
X97917000Y-81407000I-1397000J0D01*
G01*
X99348200Y-84391301D02*
G75*
G03*
X99348200Y-84391301I-203200J0D01*
G01*
X98767900Y-83654900D02*
X98767900Y-79159100D01*
X94272100Y-83654900D02*
X98767900Y-83654900D01*
X94272100Y-79159100D02*
X94272100Y-83654900D01*
X98767900Y-79159100D02*
X94272100Y-79159100D01*
X93895000Y-83007001D02*
X94272100Y-83007001D01*
X93895000Y-83007001D02*
X93895000Y-83007001D01*
X94272100Y-83007001D02*
X93895000Y-83007001D01*
X94272100Y-83007001D02*
X94272100Y-83007001D01*
X93895000Y-79806999D02*
X94272100Y-79806999D01*
X93895000Y-79806999D02*
X93895000Y-79806999D01*
X94272100Y-79806999D02*
X93895000Y-79806999D01*
X94272100Y-79806999D02*
X94272100Y-79806999D01*
X99145000Y-79806999D02*
X98767900Y-79806999D01*
X99145000Y-79806999D02*
X99145000Y-79806999D01*
X98767900Y-79806999D02*
X99145000Y-79806999D01*
X98767900Y-79806999D02*
X98767900Y-79806999D01*
X99145000Y-83007001D02*
X98767900Y-83007001D01*
X99145000Y-83007001D02*
X99145000Y-83007001D01*
X98767900Y-83007001D02*
X99145000Y-83007001D01*
X98767900Y-83007001D02*
X98767900Y-83007001D01*
%TO.C,SW_ESP_2*%
X133438900Y-113741001D02*
X133438900Y-113741001D01*
X133438900Y-113741001D02*
X133816000Y-113741001D01*
X133816000Y-113741001D02*
X133816000Y-113741001D01*
X133816000Y-113741001D02*
X133438900Y-113741001D01*
X133438900Y-110540999D02*
X133438900Y-110540999D01*
X133438900Y-110540999D02*
X133816000Y-110540999D01*
X133816000Y-110540999D02*
X133816000Y-110540999D01*
X133816000Y-110540999D02*
X133438900Y-110540999D01*
X128943100Y-110540999D02*
X128943100Y-110540999D01*
X128943100Y-110540999D02*
X128566000Y-110540999D01*
X128566000Y-110540999D02*
X128566000Y-110540999D01*
X128566000Y-110540999D02*
X128943100Y-110540999D01*
X128943100Y-113741001D02*
X128943100Y-113741001D01*
X128943100Y-113741001D02*
X128566000Y-113741001D01*
X128566000Y-113741001D02*
X128566000Y-113741001D01*
X128566000Y-113741001D02*
X128943100Y-113741001D01*
X133438900Y-109893100D02*
X128943100Y-109893100D01*
X128943100Y-109893100D02*
X128943100Y-114388900D01*
X128943100Y-114388900D02*
X133438900Y-114388900D01*
X133438900Y-114388900D02*
X133438900Y-109893100D01*
X134019200Y-115125301D02*
G75*
G03*
X134019200Y-115125301I-203200J0D01*
G01*
X132588000Y-112141000D02*
G75*
G03*
X132588000Y-112141000I-1397000J0D01*
G01*
D11*
%TO.C,U_IMU_1*%
X102090000Y-101108000D02*
G75*
G03*
X102090000Y-101108000I-50000J0D01*
G01*
D14*
X102590000Y-103408000D02*
X102590000Y-100808000D01*
X105690000Y-103408000D02*
X102590000Y-103408000D01*
X105690000Y-100808000D02*
X105690000Y-103408000D01*
X102590000Y-100808000D02*
X105690000Y-100808000D01*
D15*
%TO.C,U_CN_1*%
X115446000Y-120960000D02*
G75*
G03*
X115446000Y-120960000I-100000J0D01*
G01*
D11*
X123596000Y-122120000D02*
X114656000Y-122120000D01*
X123596000Y-129470000D02*
X123596000Y-122120000D01*
X114656000Y-129470000D02*
X123596000Y-129470000D01*
X114656000Y-122120000D02*
X114656000Y-129470000D01*
%TD*%
%TO.C,CP_ESP_1*%
D16*
X96266000Y-73239380D02*
X96266000Y-73477476D01*
X96027904Y-73382238D02*
X96266000Y-73477476D01*
X96504095Y-73382238D01*
X96123142Y-73667952D02*
X96266000Y-73477476D01*
X96408857Y-73667952D01*
%TO.C,J_PW_2*%
D17*
X95309666Y-126726190D02*
X95309666Y-127083333D01*
X95285857Y-127154761D01*
X95238238Y-127202380D01*
X95166809Y-127226190D01*
X95119190Y-127226190D01*
X95428714Y-127273809D02*
X95809666Y-127273809D01*
X95928714Y-127226190D02*
X95928714Y-126726190D01*
X96119190Y-126726190D01*
X96166809Y-126750000D01*
X96190619Y-126773809D01*
X96214428Y-126821428D01*
X96214428Y-126892857D01*
X96190619Y-126940476D01*
X96166809Y-126964285D01*
X96119190Y-126988095D01*
X95928714Y-126988095D01*
X96381095Y-126726190D02*
X96500142Y-127226190D01*
X96595380Y-126869047D01*
X96690619Y-127226190D01*
X96809666Y-126726190D01*
X96881095Y-127273809D02*
X97262047Y-127273809D01*
X97357285Y-126773809D02*
X97381095Y-126750000D01*
X97428714Y-126726190D01*
X97547761Y-126726190D01*
X97595380Y-126750000D01*
X97619190Y-126773809D01*
X97643000Y-126821428D01*
X97643000Y-126869047D01*
X97619190Y-126940476D01*
X97333476Y-127226190D01*
X97643000Y-127226190D01*
%TO.C,U_ESP_1*%
D16*
X121634619Y-82891380D02*
X121634619Y-83700904D01*
X121682238Y-83796142D01*
X121729857Y-83843761D01*
X121825095Y-83891380D01*
X122015571Y-83891380D01*
X122110809Y-83843761D01*
X122158428Y-83796142D01*
X122206047Y-83700904D01*
X122206047Y-82891380D01*
X122444142Y-83986619D02*
X123206047Y-83986619D01*
X123444142Y-83367571D02*
X123777476Y-83367571D01*
X123920333Y-83891380D02*
X123444142Y-83891380D01*
X123444142Y-82891380D01*
X123920333Y-82891380D01*
X124301285Y-83843761D02*
X124444142Y-83891380D01*
X124682238Y-83891380D01*
X124777476Y-83843761D01*
X124825095Y-83796142D01*
X124872714Y-83700904D01*
X124872714Y-83605666D01*
X124825095Y-83510428D01*
X124777476Y-83462809D01*
X124682238Y-83415190D01*
X124491761Y-83367571D01*
X124396523Y-83319952D01*
X124348904Y-83272333D01*
X124301285Y-83177095D01*
X124301285Y-83081857D01*
X124348904Y-82986619D01*
X124396523Y-82939000D01*
X124491761Y-82891380D01*
X124729857Y-82891380D01*
X124872714Y-82939000D01*
X125301285Y-83891380D02*
X125301285Y-82891380D01*
X125682238Y-82891380D01*
X125777476Y-82939000D01*
X125825095Y-82986619D01*
X125872714Y-83081857D01*
X125872714Y-83224714D01*
X125825095Y-83319952D01*
X125777476Y-83367571D01*
X125682238Y-83415190D01*
X125301285Y-83415190D01*
X126063190Y-83986619D02*
X126825095Y-83986619D01*
X127587000Y-83891380D02*
X127015571Y-83891380D01*
X127301285Y-83891380D02*
X127301285Y-82891380D01*
X127206047Y-83034238D01*
X127110809Y-83129476D01*
X127015571Y-83177095D01*
%TO.C,J_7*%
X89328714Y-109307380D02*
X89328714Y-110021666D01*
X89281095Y-110164523D01*
X89185857Y-110259761D01*
X89043000Y-110307380D01*
X88947761Y-110307380D01*
X89566809Y-110402619D02*
X90328714Y-110402619D01*
X90471571Y-109307380D02*
X91138238Y-109307380D01*
X90709666Y-110307380D01*
%TO.C,J_6*%
X89328714Y-105497380D02*
X89328714Y-106211666D01*
X89281095Y-106354523D01*
X89185857Y-106449761D01*
X89043000Y-106497380D01*
X88947761Y-106497380D01*
X89566809Y-106592619D02*
X90328714Y-106592619D01*
X90995380Y-105497380D02*
X90804904Y-105497380D01*
X90709666Y-105545000D01*
X90662047Y-105592619D01*
X90566809Y-105735476D01*
X90519190Y-105925952D01*
X90519190Y-106306904D01*
X90566809Y-106402142D01*
X90614428Y-106449761D01*
X90709666Y-106497380D01*
X90900142Y-106497380D01*
X90995380Y-106449761D01*
X91043000Y-106402142D01*
X91090619Y-106306904D01*
X91090619Y-106068809D01*
X91043000Y-105973571D01*
X90995380Y-105925952D01*
X90900142Y-105878333D01*
X90709666Y-105878333D01*
X90614428Y-105925952D01*
X90566809Y-105973571D01*
X90519190Y-106068809D01*
%TO.C,J_5*%
X89328714Y-101687380D02*
X89328714Y-102401666D01*
X89281095Y-102544523D01*
X89185857Y-102639761D01*
X89043000Y-102687380D01*
X88947761Y-102687380D01*
X89566809Y-102782619D02*
X90328714Y-102782619D01*
X91043000Y-101687380D02*
X90566809Y-101687380D01*
X90519190Y-102163571D01*
X90566809Y-102115952D01*
X90662047Y-102068333D01*
X90900142Y-102068333D01*
X90995380Y-102115952D01*
X91043000Y-102163571D01*
X91090619Y-102258809D01*
X91090619Y-102496904D01*
X91043000Y-102592142D01*
X90995380Y-102639761D01*
X90900142Y-102687380D01*
X90662047Y-102687380D01*
X90566809Y-102639761D01*
X90519190Y-102592142D01*
%TO.C,J_4*%
X89328714Y-97877380D02*
X89328714Y-98591666D01*
X89281095Y-98734523D01*
X89185857Y-98829761D01*
X89043000Y-98877380D01*
X88947761Y-98877380D01*
X89566809Y-98972619D02*
X90328714Y-98972619D01*
X90995380Y-98210714D02*
X90995380Y-98877380D01*
X90757285Y-97829761D02*
X90519190Y-98544047D01*
X91138238Y-98544047D01*
%TO.C,J_3*%
X121967714Y-99782380D02*
X121967714Y-100496666D01*
X121920095Y-100639523D01*
X121824857Y-100734761D01*
X121682000Y-100782380D01*
X121586761Y-100782380D01*
X122205809Y-100877619D02*
X122967714Y-100877619D01*
X123110571Y-99782380D02*
X123729619Y-99782380D01*
X123396285Y-100163333D01*
X123539142Y-100163333D01*
X123634380Y-100210952D01*
X123682000Y-100258571D01*
X123729619Y-100353809D01*
X123729619Y-100591904D01*
X123682000Y-100687142D01*
X123634380Y-100734761D01*
X123539142Y-100782380D01*
X123253428Y-100782380D01*
X123158190Y-100734761D01*
X123110571Y-100687142D01*
%TO.C,J_2*%
X138898380Y-101425285D02*
X139612666Y-101425285D01*
X139755523Y-101472904D01*
X139850761Y-101568142D01*
X139898380Y-101711000D01*
X139898380Y-101806238D01*
X139993619Y-101187190D02*
X139993619Y-100425285D01*
X138993619Y-100234809D02*
X138946000Y-100187190D01*
X138898380Y-100091952D01*
X138898380Y-99853857D01*
X138946000Y-99758619D01*
X138993619Y-99711000D01*
X139088857Y-99663380D01*
X139184095Y-99663380D01*
X139326952Y-99711000D01*
X139898380Y-100282428D01*
X139898380Y-99663380D01*
%TO.C,J_1*%
X84542380Y-101171285D02*
X85256666Y-101171285D01*
X85399523Y-101218904D01*
X85494761Y-101314142D01*
X85542380Y-101457000D01*
X85542380Y-101552238D01*
X85637619Y-100933190D02*
X85637619Y-100171285D01*
X85542380Y-99409380D02*
X85542380Y-99980809D01*
X85542380Y-99695095D02*
X84542380Y-99695095D01*
X84685238Y-99790333D01*
X84780476Y-99885571D01*
X84828095Y-99980809D01*
%TO.C,LED_ESP_1*%
D18*
X128450952Y-122227809D02*
X128450952Y-122418285D01*
X128050952Y-122418285D01*
X128241428Y-122094476D02*
X128241428Y-121961142D01*
X128450952Y-121904000D02*
X128450952Y-122094476D01*
X128050952Y-122094476D01*
X128050952Y-121904000D01*
X128450952Y-121732571D02*
X128050952Y-121732571D01*
X128050952Y-121637333D01*
X128070000Y-121580190D01*
X128108095Y-121542095D01*
X128146190Y-121523047D01*
X128222380Y-121504000D01*
X128279523Y-121504000D01*
X128355714Y-121523047D01*
X128393809Y-121542095D01*
X128431904Y-121580190D01*
X128450952Y-121637333D01*
X128450952Y-121732571D01*
X128489047Y-121427809D02*
X128489047Y-121123047D01*
X128241428Y-121027809D02*
X128241428Y-120894476D01*
X128450952Y-120837333D02*
X128450952Y-121027809D01*
X128050952Y-121027809D01*
X128050952Y-120837333D01*
X128431904Y-120684952D02*
X128450952Y-120627809D01*
X128450952Y-120532571D01*
X128431904Y-120494476D01*
X128412857Y-120475428D01*
X128374761Y-120456380D01*
X128336666Y-120456380D01*
X128298571Y-120475428D01*
X128279523Y-120494476D01*
X128260476Y-120532571D01*
X128241428Y-120608761D01*
X128222380Y-120646857D01*
X128203333Y-120665904D01*
X128165238Y-120684952D01*
X128127142Y-120684952D01*
X128089047Y-120665904D01*
X128070000Y-120646857D01*
X128050952Y-120608761D01*
X128050952Y-120513523D01*
X128070000Y-120456380D01*
X128450952Y-120284952D02*
X128050952Y-120284952D01*
X128050952Y-120132571D01*
X128070000Y-120094476D01*
X128089047Y-120075428D01*
X128127142Y-120056380D01*
X128184285Y-120056380D01*
X128222380Y-120075428D01*
X128241428Y-120094476D01*
X128260476Y-120132571D01*
X128260476Y-120284952D01*
X128489047Y-119980190D02*
X128489047Y-119675428D01*
X128450952Y-119370666D02*
X128450952Y-119599238D01*
X128450952Y-119484952D02*
X128050952Y-119484952D01*
X128108095Y-119523047D01*
X128146190Y-119561142D01*
X128165238Y-119599238D01*
%TO.C,J_PW_3*%
D17*
X119820666Y-111994190D02*
X119820666Y-112351333D01*
X119796857Y-112422761D01*
X119749238Y-112470380D01*
X119677809Y-112494190D01*
X119630190Y-112494190D01*
X119939714Y-112541809D02*
X120320666Y-112541809D01*
X120439714Y-112494190D02*
X120439714Y-111994190D01*
X120630190Y-111994190D01*
X120677809Y-112018000D01*
X120701619Y-112041809D01*
X120725428Y-112089428D01*
X120725428Y-112160857D01*
X120701619Y-112208476D01*
X120677809Y-112232285D01*
X120630190Y-112256095D01*
X120439714Y-112256095D01*
X120892095Y-111994190D02*
X121011142Y-112494190D01*
X121106380Y-112137047D01*
X121201619Y-112494190D01*
X121320666Y-111994190D01*
X121392095Y-112541809D02*
X121773047Y-112541809D01*
X121844476Y-111994190D02*
X122154000Y-111994190D01*
X121987333Y-112184666D01*
X122058761Y-112184666D01*
X122106380Y-112208476D01*
X122130190Y-112232285D01*
X122154000Y-112279904D01*
X122154000Y-112398952D01*
X122130190Y-112446571D01*
X122106380Y-112470380D01*
X122058761Y-112494190D01*
X121915904Y-112494190D01*
X121868285Y-112470380D01*
X121844476Y-112446571D01*
%TO.C,J_PW_1*%
X119058666Y-118598190D02*
X119058666Y-118955333D01*
X119034857Y-119026761D01*
X118987238Y-119074380D01*
X118915809Y-119098190D01*
X118868190Y-119098190D01*
X119177714Y-119145809D02*
X119558666Y-119145809D01*
X119677714Y-119098190D02*
X119677714Y-118598190D01*
X119868190Y-118598190D01*
X119915809Y-118622000D01*
X119939619Y-118645809D01*
X119963428Y-118693428D01*
X119963428Y-118764857D01*
X119939619Y-118812476D01*
X119915809Y-118836285D01*
X119868190Y-118860095D01*
X119677714Y-118860095D01*
X120130095Y-118598190D02*
X120249142Y-119098190D01*
X120344380Y-118741047D01*
X120439619Y-119098190D01*
X120558666Y-118598190D01*
X120630095Y-119145809D02*
X121011047Y-119145809D01*
X121392000Y-119098190D02*
X121106285Y-119098190D01*
X121249142Y-119098190D02*
X121249142Y-118598190D01*
X121201523Y-118669619D01*
X121153904Y-118717238D01*
X121106285Y-118741047D01*
%TO.C,J_CN_4*%
X113748476Y-118598190D02*
X113748476Y-118955333D01*
X113724666Y-119026761D01*
X113677047Y-119074380D01*
X113605619Y-119098190D01*
X113558000Y-119098190D01*
X113867523Y-119145809D02*
X114248476Y-119145809D01*
X114653238Y-119050571D02*
X114629428Y-119074380D01*
X114558000Y-119098190D01*
X114510380Y-119098190D01*
X114438952Y-119074380D01*
X114391333Y-119026761D01*
X114367523Y-118979142D01*
X114343714Y-118883904D01*
X114343714Y-118812476D01*
X114367523Y-118717238D01*
X114391333Y-118669619D01*
X114438952Y-118622000D01*
X114510380Y-118598190D01*
X114558000Y-118598190D01*
X114629428Y-118622000D01*
X114653238Y-118645809D01*
X114867523Y-119098190D02*
X114867523Y-118598190D01*
X115153238Y-119098190D01*
X115153238Y-118598190D01*
X115272285Y-119145809D02*
X115653238Y-119145809D01*
X115986571Y-118764857D02*
X115986571Y-119098190D01*
X115867523Y-118574380D02*
X115748476Y-118931523D01*
X116058000Y-118931523D01*
%TO.C,J_CN_3*%
X124416476Y-118598190D02*
X124416476Y-118955333D01*
X124392666Y-119026761D01*
X124345047Y-119074380D01*
X124273619Y-119098190D01*
X124226000Y-119098190D01*
X124535523Y-119145809D02*
X124916476Y-119145809D01*
X125321238Y-119050571D02*
X125297428Y-119074380D01*
X125226000Y-119098190D01*
X125178380Y-119098190D01*
X125106952Y-119074380D01*
X125059333Y-119026761D01*
X125035523Y-118979142D01*
X125011714Y-118883904D01*
X125011714Y-118812476D01*
X125035523Y-118717238D01*
X125059333Y-118669619D01*
X125106952Y-118622000D01*
X125178380Y-118598190D01*
X125226000Y-118598190D01*
X125297428Y-118622000D01*
X125321238Y-118645809D01*
X125535523Y-119098190D02*
X125535523Y-118598190D01*
X125821238Y-119098190D01*
X125821238Y-118598190D01*
X125940285Y-119145809D02*
X126321238Y-119145809D01*
X126392666Y-118598190D02*
X126702190Y-118598190D01*
X126535523Y-118788666D01*
X126606952Y-118788666D01*
X126654571Y-118812476D01*
X126678380Y-118836285D01*
X126702190Y-118883904D01*
X126702190Y-119002952D01*
X126678380Y-119050571D01*
X126654571Y-119074380D01*
X126606952Y-119098190D01*
X126464095Y-119098190D01*
X126416476Y-119074380D01*
X126392666Y-119050571D01*
%TO.C,J_CN_2*%
X104096476Y-126853190D02*
X104096476Y-127210333D01*
X104072666Y-127281761D01*
X104025047Y-127329380D01*
X103953619Y-127353190D01*
X103906000Y-127353190D01*
X104215523Y-127400809D02*
X104596476Y-127400809D01*
X105001238Y-127305571D02*
X104977428Y-127329380D01*
X104906000Y-127353190D01*
X104858380Y-127353190D01*
X104786952Y-127329380D01*
X104739333Y-127281761D01*
X104715523Y-127234142D01*
X104691714Y-127138904D01*
X104691714Y-127067476D01*
X104715523Y-126972238D01*
X104739333Y-126924619D01*
X104786952Y-126877000D01*
X104858380Y-126853190D01*
X104906000Y-126853190D01*
X104977428Y-126877000D01*
X105001238Y-126900809D01*
X105215523Y-127353190D02*
X105215523Y-126853190D01*
X105501238Y-127353190D01*
X105501238Y-126853190D01*
X105620285Y-127400809D02*
X106001238Y-127400809D01*
X106096476Y-126900809D02*
X106120285Y-126877000D01*
X106167904Y-126853190D01*
X106286952Y-126853190D01*
X106334571Y-126877000D01*
X106358380Y-126900809D01*
X106382190Y-126948428D01*
X106382190Y-126996047D01*
X106358380Y-127067476D01*
X106072666Y-127353190D01*
X106382190Y-127353190D01*
%TO.C,J_CN_1*%
X131020476Y-126726190D02*
X131020476Y-127083333D01*
X130996666Y-127154761D01*
X130949047Y-127202380D01*
X130877619Y-127226190D01*
X130830000Y-127226190D01*
X131139523Y-127273809D02*
X131520476Y-127273809D01*
X131925238Y-127178571D02*
X131901428Y-127202380D01*
X131830000Y-127226190D01*
X131782380Y-127226190D01*
X131710952Y-127202380D01*
X131663333Y-127154761D01*
X131639523Y-127107142D01*
X131615714Y-127011904D01*
X131615714Y-126940476D01*
X131639523Y-126845238D01*
X131663333Y-126797619D01*
X131710952Y-126750000D01*
X131782380Y-126726190D01*
X131830000Y-126726190D01*
X131901428Y-126750000D01*
X131925238Y-126773809D01*
X132139523Y-127226190D02*
X132139523Y-126726190D01*
X132425238Y-127226190D01*
X132425238Y-126726190D01*
X132544285Y-127273809D02*
X132925238Y-127273809D01*
X133306190Y-127226190D02*
X133020476Y-127226190D01*
X133163333Y-127226190D02*
X133163333Y-126726190D01*
X133115714Y-126797619D01*
X133068095Y-126845238D01*
X133020476Y-126869047D01*
%TO.C,U_PW_1*%
D16*
X99695000Y-119467380D02*
X99695000Y-119705476D01*
X99456904Y-119610238D02*
X99695000Y-119705476D01*
X99933095Y-119610238D01*
X99552142Y-119895952D02*
X99695000Y-119705476D01*
X99837857Y-119895952D01*
%TO.C,C_PW_2*%
D17*
X89681857Y-126940380D02*
X90015190Y-126940380D01*
X89491380Y-127059428D02*
X89848523Y-127178476D01*
X89848523Y-126868952D01*
X89967571Y-126678476D02*
X89991380Y-126654666D01*
X90015190Y-126678476D01*
X89991380Y-126702285D01*
X89967571Y-126678476D01*
X90015190Y-126678476D01*
X89515190Y-126488000D02*
X89515190Y-126154666D01*
X90015190Y-126368952D01*
X89681857Y-125749904D02*
X90015190Y-125749904D01*
X89681857Y-125964190D02*
X89943761Y-125964190D01*
X89991380Y-125940380D01*
X90015190Y-125892761D01*
X90015190Y-125821333D01*
X89991380Y-125773714D01*
X89967571Y-125749904D01*
X89753285Y-125345142D02*
X89753285Y-125511809D01*
X90015190Y-125511809D02*
X89515190Y-125511809D01*
X89515190Y-125273714D01*
%TO.C,C_PW_5*%
D16*
X112776000Y-105370380D02*
X112776000Y-105608476D01*
X112537904Y-105513238D02*
X112776000Y-105608476D01*
X113014095Y-105513238D01*
X112633142Y-105798952D02*
X112776000Y-105608476D01*
X112918857Y-105798952D01*
%TO.C,L_PW_1*%
X101873050Y-113117380D02*
X101873050Y-113355476D01*
X101634954Y-113260238D02*
X101873050Y-113355476D01*
X102111145Y-113260238D01*
X101730192Y-113545952D02*
X101873050Y-113355476D01*
X102015907Y-113545952D01*
D11*
X101123050Y-112033857D02*
X101123050Y-112367190D01*
X101004002Y-111843380D02*
X100884954Y-112200523D01*
X101194478Y-112200523D01*
X101384954Y-112319571D02*
X101408764Y-112343380D01*
X101384954Y-112367190D01*
X101361145Y-112343380D01*
X101384954Y-112319571D01*
X101384954Y-112367190D01*
X101575430Y-111867190D02*
X101908764Y-111867190D01*
X101694478Y-112367190D01*
X102313526Y-112033857D02*
X102313526Y-112367190D01*
X102099240Y-112033857D02*
X102099240Y-112295761D01*
X102123050Y-112343380D01*
X102170669Y-112367190D01*
X102242097Y-112367190D01*
X102289716Y-112343380D01*
X102313526Y-112319571D01*
X102551621Y-112367190D02*
X102551621Y-111867190D01*
X102551621Y-112105285D02*
X102837335Y-112105285D01*
X102837335Y-112367190D02*
X102837335Y-111867190D01*
%TO.C,Q_PW_1*%
D16*
X112228380Y-110744000D02*
X112466476Y-110744000D01*
X112371238Y-110982095D02*
X112466476Y-110744000D01*
X112371238Y-110505904D01*
X112656952Y-110886857D02*
X112466476Y-110744000D01*
X112656952Y-110601142D01*
%TO.C,SW_ESP_1*%
X96520000Y-80859380D02*
X96520000Y-81097476D01*
X96281904Y-81002238D02*
X96520000Y-81097476D01*
X96758095Y-81002238D01*
X96377142Y-81287952D02*
X96520000Y-81097476D01*
X96662857Y-81287952D01*
%TO.C,SW_ESP_2*%
X131191000Y-111593380D02*
X131191000Y-111831476D01*
X130952904Y-111736238D02*
X131191000Y-111831476D01*
X131429095Y-111736238D01*
X131048142Y-112021952D02*
X131191000Y-111831476D01*
X131333857Y-112021952D01*
%TD*%
M02*
