M48
; DRILL file {KiCad (5.1.9)-1} date 03/31/21 16:36:20
; FORMAT={-:-/ absolute / inch / decimal}
; #@! TF.CreationDate,2021-03-31T16:36:20-07:00
; #@! TF.GenerationSoftware,Kicad,Pcbnew,(5.1.9)-1
; #@! TF.FileFunction,Plated,1,2,PTH
FMAT,2
INCH
T1C0.0126
T2C0.0394
%
G90
G05
T1
X3.5Y-3.055
X3.535Y-4.52
X3.76Y-4.475
X3.77Y-4.07
X3.775Y-4.745
X3.78Y-4.615
X3.79Y-3.335
X3.8Y-4.795
X3.81Y-4.13
X3.82Y-4.52
X3.8747Y-4.1076
X3.915Y-4.06
X3.925Y-4.615
X3.925Y-4.82
X3.935Y-4.87
X3.9425Y-4.1975
X3.955Y-4.03
X4.01Y-3.86
X4.065Y-3.67
X4.114Y-4.69
X4.145Y-4.18
X4.18Y-3.055
X4.2Y-3.69
X4.225Y-4.3
X4.235Y-3.965
X4.27Y-3.72
X4.2905Y-4.1395
X4.355Y-2.99
X4.45Y-3.625
X4.4795Y-4.4655
X4.485Y-4.02
X4.4888Y-4.985
X4.5411Y-3.8
X4.555Y-4.745
X4.7845Y-4.7455
X4.8656Y-3.2953
X4.8912Y-4.985
X5.075Y-4.265
X5.095Y-4.225
X5.3Y-4.565
T2
X3.35Y-3.005
X3.35Y-3.105
X3.35Y-3.205
X3.35Y-3.305
X3.35Y-3.405
X3.35Y-3.505
X3.35Y-3.605
X3.35Y-3.705
X3.35Y-3.805
X3.35Y-3.905
X3.35Y-4.005
X3.35Y-4.105
X3.35Y-4.205
X3.35Y-4.305
X3.35Y-4.405
X3.35Y-4.505
X3.35Y-4.605
X3.35Y-4.705
X3.35Y-4.805
X3.35Y-4.905
X3.495Y-3.875
X3.495Y-4.025
X3.495Y-4.175
X3.495Y-4.325
X3.595Y-3.875
X3.595Y-4.025
X3.595Y-4.175
X3.595Y-4.325
X3.74Y-5.005
X3.84Y-5.005
X3.995Y-5.005
X4.095Y-5.005
X4.195Y-5.005
X4.295Y-5.005
X4.48Y-3.95
X4.52Y-4.59
X4.58Y-3.95
X4.68Y-3.95
X4.69Y-4.59
X4.76Y-4.32
X4.78Y-3.95
X4.79Y-4.59
X4.88Y-3.95
X4.94Y-4.59
X4.98Y-3.95
X5.025Y-5.005
X5.08Y-3.95
X5.125Y-5.005
X5.18Y-3.95
X5.225Y-5.005
X5.325Y-5.005
X5.49Y-3.015
X5.49Y-3.115
X5.49Y-3.215
X5.49Y-3.315
X5.49Y-3.415
X5.49Y-3.515
X5.49Y-3.615
X5.49Y-3.715
X5.49Y-3.815
X5.49Y-3.915
X5.49Y-4.015
X5.49Y-4.115
X5.49Y-4.215
X5.49Y-4.315
X5.49Y-4.415
X5.49Y-4.515
X5.49Y-4.615
X5.49Y-4.715
X5.49Y-4.815
X5.49Y-4.915
T0
M30
